<?xml version="1.0" standalone="no"?>
<!DOCTYPE svg PUBLIC "-//W3C//DTD SVG 20010904//EN"
 "http://www.w3.org/TR/2001/REC-SVG-20010904/DTD/svg10.dtd">
<svg version="1.0" xmlns="http://www.w3.org/2000/svg"
 width="481.000000pt" height="481.000000pt" viewBox="0 0 481.000000 481.000000"
 preserveAspectRatio="xMidYMid meet">
<metadata>
Created by potrace 1.14, written by Peter Selinger 2001-2017
</metadata>
<g transform="translate(0.000000,481.000000) scale(0.100000,-0.100000)"
fill="#000000" stroke="none">
<path d="M1347 4202 c-15 -2 -32 -12 -37 -23 -11 -20 -15 -2956 -4 -3066 8
-79 50 -234 84 -310 44 -97 115 -199 197 -283 128 -132 62 -121 712 -120 341
0 570 4 586 10 33 13 169 148 224 223 75 102 140 248 166 367 2 14 8 39 12 55
4 17 8 723 10 1571 2 1236 0 1544 -10 1558 -12 17 -72 18 -963 19 -522 1 -961
1 -977 -1z m1801 -92 l62 0 0 -284 c0 -215 -3 -286 -12 -294 -32 -25 -360
-202 -418 -225 -112 -44 -233 -60 -343 -45 -100 13 -175 43 -313 125 -315 186
-476 253 -696 288 l-38 6 0 214 0 214 23 3 c12 2 393 2 847 1 454 -2 853 -3
888 -3z m-1606 -551 c146 -36 268 -91 482 -219 186 -110 259 -144 341 -157 17
-2 46 -8 65 -12 47 -10 169 -4 250 12 82 17 249 89 380 164 19 11 61 35 93 53
l58 32 -3 -1183 c-2 -847 -6 -1193 -14 -1214 -7 -16 -20 -58 -29 -92 l-18 -63
-41 -1 c-54 0 -1593 0 -1628 0 -24 1 -28 8 -47 68 -11 38 -25 97 -31 133 -6
42 -10 504 -10 1287 l0 1222 38 -5 c20 -3 72 -14 114 -25z m1548 -2783 c0 -45
-211 -284 -253 -287 -7 0 -251 -1 -544 -1 -605 -2 -542 -11 -644 95 -58 60
-150 187 -144 197 6 9 1585 5 1585 -4z"/>
<path d="M2453 2943 c4 -6 0 -19 -9 -27 -11 -12 -12 -16 -2 -16 10 0 9 -3 -2
-10 -13 -9 -13 -10 0 -10 13 0 13 -1 0 -10 -11 -7 -11 -10 -2 -10 7 0 10 -4 7
-10 -6 -9 30 -15 64 -11 8 2 10 -2 5 -11 -6 -10 -5 -11 7 -1 13 10 20 9 37 -8
13 -12 22 -15 22 -7 0 6 7 3 15 -8 8 -10 15 -15 15 -10 0 5 10 1 22 -10 13
-12 18 -13 13 -4 -9 15 33 -15 47 -35 5 -6 8 -4 8 4 0 11 4 9 15 -5 8 -10 15
-16 15 -12 0 12 100 -91 100 -103 0 -7 3 -10 6 -6 9 9 32 -16 27 -29 -7 -18
22 -24 50 -9 14 7 27 12 29 10 2 -2 9 3 16 11 7 8 8 14 2 14 -5 0 -10 11 -10
25 0 15 -5 24 -12 23 -7 -2 -12 3 -10 10 1 6 -1 11 -5 11 -21 -3 -32 2 -27 14
2 7 -7 19 -20 27 -14 7 -23 17 -20 22 3 4 -1 8 -8 8 -8 0 -20 9 -28 20 -8 11
-20 20 -27 20 -7 0 -13 4 -13 9 0 5 -22 20 -50 33 -27 14 -46 28 -42 33 4 4 0
5 -8 3 -8 -3 -24 2 -34 11 -16 13 -18 13 -11 1 4 -8 -3 -5 -16 7 -18 16 -28
19 -41 12 -11 -6 -19 -5 -24 2 -5 8 -3 9 6 4 8 -5 11 -4 6 3 -4 6 -13 9 -21 5
-8 -3 -15 -1 -15 5 0 11 -25 10 -36 -1 -4 -4 -16 1 -27 10 -11 10 -17 13 -14
6z"/>
<path d="M2238 2823 c-10 -2 -18 -10 -18 -16 0 -7 -4 -6 -10 3 -9 13 -10 13
-10 0 0 -13 -1 -13 -10 0 -5 8 -10 10 -10 4 0 -14 -33 -14 -42 0 -5 7 -8 4 -8
-8 0 -12 -5 -16 -15 -13 -8 4 -17 2 -21 -4 -3 -6 -12 -8 -20 -5 -8 3 -14 1
-14 -5 0 -6 -4 -8 -9 -5 -13 8 -42 -4 -35 -15 3 -5 -2 -6 -10 -3 -9 3 -16 1
-16 -5 0 -6 -3 -10 -7 -9 -15 4 -73 -21 -73 -32 0 -6 -4 -9 -9 -6 -5 3 -11 -1
-15 -9 -3 -8 -11 -15 -18 -15 -8 0 -20 -9 -28 -20 -8 -11 -22 -20 -32 -20 -10
0 -17 -3 -16 -7 3 -15 -14 -43 -23 -38 -4 3 -14 -6 -21 -19 -7 -14 -17 -26
-23 -26 -5 -1 -9 -6 -7 -11 1 -5 -6 -9 -15 -10 -12 0 -14 -2 -5 -6 10 -4 8 -9
-7 -20 -12 -8 -19 -18 -16 -23 3 -4 -2 -10 -10 -14 -8 -3 -15 -12 -15 -21 0
-8 -5 -15 -11 -15 -5 0 -7 -5 -4 -11 4 -6 -1 -17 -11 -25 -11 -9 -13 -13 -6
-9 7 4 4 -9 -8 -30 -12 -21 -22 -58 -24 -82 -1 -25 -9 -49 -17 -54 -12 -7 -12
-9 1 -9 9 0 11 -3 5 -8 -6 -4 -10 -26 -10 -50 1 -24 -3 -46 -7 -48 -5 -3 -5
-11 -1 -17 12 -20 12 -37 0 -37 -7 0 -7 -4 2 -9 8 -5 11 -16 8 -25 -4 -9 -2
-16 3 -16 6 0 10 -5 10 -11 0 -5 -4 -8 -9 -4 -5 3 -13 1 -16 -5 -4 -6 -3 -10
2 -9 30 5 42 -25 18 -43 -6 -5 -5 -8 4 -8 8 0 11 -6 7 -16 -3 -8 -2 -12 4 -9
6 3 11 0 12 -7 0 -7 2 -17 2 -23 1 -5 5 -16 9 -22 5 -7 6 -17 3 -22 -4 -5 -1
-11 4 -13 6 -2 12 -13 13 -25 0 -12 4 -20 8 -17 4 2 10 -8 13 -21 4 -14 11
-23 16 -20 5 3 7 -4 5 -15 -2 -11 0 -18 5 -15 5 3 11 -3 15 -14 3 -11 12 -22
20 -25 8 -3 15 -12 15 -21 0 -8 4 -15 9 -15 13 0 76 -63 73 -72 -1 -5 5 -8 14
-8 8 0 12 -5 9 -10 -4 -6 -3 -10 2 -9 21 4 33 -2 33 -16 0 -9 6 -12 15 -9 8 4
15 2 15 -2 0 -5 15 -15 33 -23 17 -8 40 -21 50 -29 9 -8 17 -11 17 -6 0 5 4 3
8 -3 4 -7 17 -14 27 -16 11 -2 29 -8 40 -14 11 -6 26 -8 33 -6 7 3 18 1 25 -4
7 -5 24 -8 40 -7 17 2 25 -1 21 -8 -4 -6 3 -5 16 2 20 11 22 10 16 -5 -5 -14
-4 -15 7 -7 7 6 55 13 105 14 51 2 92 6 92 9 0 6 78 23 93 20 4 0 7 4 7 10 0
6 7 8 16 5 8 -3 13 -2 10 3 -3 5 1 12 10 15 10 4 13 2 9 -7 -4 -6 0 -4 9 7 8
10 19 15 24 12 6 -3 13 1 16 10 3 8 10 12 16 9 5 -3 10 -1 10 4 0 6 7 11 15
11 9 0 18 7 21 15 4 8 10 13 14 10 4 -3 11 2 14 11 4 9 9 14 12 11 6 -5 73 58
74 71 1 4 11 12 23 19 12 7 19 12 15 13 -5 0 2 12 15 26 12 14 22 31 22 37 1
7 6 11 13 10 7 -2 12 6 12 17 0 11 5 20 11 20 5 0 7 5 4 10 -3 6 -1 10 5 10 6
0 9 4 6 9 -3 5 1 12 10 15 10 4 14 14 11 26 -3 10 0 21 6 23 10 3 15 18 19 60
1 9 5 17 9 17 3 0 7 12 8 28 3 46 9 97 11 100 7 7 5 49 -3 60 -6 8 -5 12 3 12
9 0 9 4 -1 17 -12 15 -12 16 1 8 12 -7 13 -6 4 6 -9 12 -14 39 -17 97 0 6 -3
12 -7 12 -3 0 -6 8 -7 18 -2 46 -8 70 -15 66 -4 -3 -8 2 -8 10 0 28 -1 31 -17
40 -13 7 -13 10 -2 17 11 7 11 9 -3 9 -10 0 -19 11 -23 29 -5 23 -10 28 -23
24 -15 -6 -16 -5 -2 13 8 10 10 16 6 12 -5 -4 -16 -2 -24 5 -13 9 -14 9 -8 0
4 -8 1 -13 -8 -13 -9 0 -16 -5 -16 -11 0 -6 -7 -8 -17 -5 -10 4 -14 4 -10 0 4
-4 -1 -13 -11 -21 -14 -11 -14 -12 -1 -7 10 3 19 -1 23 -11 3 -9 2 -13 -4 -10
-6 3 -7 -1 -4 -9 3 -9 10 -13 15 -10 8 5 13 -18 7 -32 -2 -3 5 -10 14 -15 9
-5 20 -24 23 -42 4 -17 10 -36 13 -42 7 -12 11 -30 14 -75 2 -19 7 -38 12 -42
6 -4 4 -13 -3 -22 -8 -9 -9 -16 -4 -16 14 0 5 -110 -10 -129 -10 -12 -9 -13 2
-7 10 7 12 3 6 -15 -4 -13 -12 -25 -16 -27 -5 -2 -6 -15 -3 -29 5 -20 4 -24
-6 -18 -10 6 -12 4 -7 -8 3 -9 2 -19 -4 -22 -5 -4 -7 -10 -4 -15 3 -5 1 -11
-5 -15 -6 -4 -7 -11 -4 -17 4 -7 2 -8 -4 -4 -7 4 -12 1 -12 -9 0 -9 -4 -13
-10 -10 -6 3 -7 -1 -4 -9 4 -9 -1 -18 -10 -22 -9 -3 -16 -14 -16 -24 0 -10
-14 -30 -31 -44 -17 -14 -27 -26 -23 -26 4 0 -1 -6 -11 -14 -11 -8 -23 -12
-27 -10 -4 3 -5 -3 -1 -13 3 -10 2 -15 -2 -11 -5 5 -15 -1 -22 -12 -8 -11 -19
-18 -24 -15 -5 4 -12 -1 -15 -9 -6 -15 -41 -32 -57 -28 -5 1 -6 -1 -3 -6 2 -4
-4 -14 -16 -21 -16 -10 -19 -10 -12 1 6 11 5 11 -9 0 -9 -8 -21 -11 -27 -7 -6
4 -9 1 -8 -7 2 -8 -6 -13 -19 -12 -13 0 -23 -4 -23 -9 0 -6 -3 -7 -7 -4 -3 4
-13 1 -21 -6 -13 -10 -14 -9 -7 3 8 13 6 13 -8 2 -9 -8 -21 -11 -27 -7 -5 3
-10 2 -10 -2 0 -5 -25 -8 -55 -6 -41 1 -54 -1 -48 -10 5 -9 3 -9 -8 0 -8 6
-29 10 -47 9 -17 -1 -32 1 -32 6 0 4 -7 4 -17 1 -12 -5 -14 -3 -8 8 8 12 6 12
-8 0 -9 -7 -17 -9 -17 -4 0 8 -14 12 -57 15 -7 1 -14 7 -17 14 -3 8 -12 11
-22 7 -10 -3 -22 0 -28 8 -6 8 -18 14 -26 14 -8 0 -14 6 -12 13 1 8 -2 11 -8
7 -5 -3 -10 -2 -10 4 0 6 -6 8 -14 5 -7 -3 -23 6 -33 20 -11 14 -24 22 -28 18
-5 -4 -5 1 -2 11 4 11 2 17 -6 15 -28 -6 -167 170 -167 213 0 11 -4 18 -8 15
-9 -5 -10 1 -13 49 -1 14 -6 25 -11 25 -5 0 -7 4 -4 8 3 5 -1 20 -9 35 -12 23
-11 25 3 21 15 -5 15 -4 0 9 -18 14 -26 33 -10 24 4 -3 6 14 5 36 0 23 -2 42
-3 42 -8 0 -5 64 4 80 15 29 16 45 3 45 -7 0 -6 4 2 9 8 5 16 19 18 32 2 12 8
28 14 35 6 7 8 18 4 24 -3 5 -1 10 5 10 6 0 9 4 6 9 -4 5 -1 11 4 13 6 2 12
11 14 21 1 9 11 24 22 33 10 8 13 13 7 9 -9 -4 -11 -1 -7 9 3 9 10 14 14 11 5
-3 11 4 15 15 3 11 13 20 21 20 8 0 12 5 9 11 -8 12 25 40 38 32 4 -2 7 -1 6
4 -3 17 1 33 9 32 17 -3 32 1 30 9 -2 4 2 9 7 11 6 2 16 12 24 23 7 11 19 17
27 14 8 -3 14 -1 14 5 0 5 11 14 25 19 14 5 25 15 25 22 0 9 3 8 10 -2 6 -10
10 -11 10 -2 0 6 9 12 19 12 11 0 23 5 26 11 4 6 13 8 20 5 7 -2 22 2 33 10
15 10 23 11 28 3 5 -8 3 -9 -6 -4 -9 5 -11 4 -6 -4 4 -6 12 -9 17 -5 5 3 6 10
3 16 -5 7 0 9 14 6 12 -4 22 -1 22 4 0 6 6 5 15 -2 8 -7 15 -8 15 -4 0 5 35 8
77 6 73 -4 76 -3 62 14 -9 11 -9 15 -1 10 8 -5 12 1 12 21 0 30 -19 72 -20 43
0 -12 -2 -12 -9 -1 -6 9 -10 10 -16 2 -5 -9 -10 -9 -21 0 -11 9 -14 8 -14 -2
0 -9 -3 -10 -8 -4 -8 13 -22 13 -41 1 -11 -7 -13 -5 -8 7 3 10 5 16 4 16 -1
-1 -10 -3 -19 -6z"/>
<path d="M2424 2738 c-16 -48 -3 -78 24 -56 10 9 12 8 10 -1 -2 -8 6 -15 16
-17 11 -1 23 -10 28 -19 5 -8 15 -12 21 -9 7 4 9 4 5 -1 -4 -4 -2 -15 5 -23
10 -13 9 -15 -7 -8 -19 6 -19 6 -3 -12 19 -21 23 -37 7 -27 -7 4 -9 -2 -6 -17
2 -13 -3 -29 -10 -36 -8 -7 -14 -9 -14 -5 0 4 -5 0 -11 -10 -6 -9 -14 -15 -20
-12 -5 4 -9 2 -9 -2 0 -5 -18 -8 -40 -7 -21 0 -37 -3 -34 -8 3 -5 1 -15 -5
-22 -8 -10 -8 -22 -1 -41 8 -21 8 -26 -2 -22 -10 3 -13 -9 -12 -47 1 -28 -3
-57 -9 -63 -6 -9 -5 -13 4 -13 11 0 11 -2 -1 -10 -13 -9 -13 -10 0 -10 13 0
13 -1 0 -10 -12 -8 -10 -10 8 -10 13 0 20 4 17 10 -3 6 0 10 8 10 8 0 20 7 27
15 7 8 16 12 21 9 5 -3 9 -1 9 3 0 5 15 17 33 28 17 10 41 27 52 37 10 10 25
16 33 13 7 -2 11 -1 8 4 -3 5 9 18 27 30 17 11 26 21 19 21 -7 0 -10 5 -7 10
3 6 1 10 -5 10 -7 0 -5 7 4 16 9 8 14 19 11 24 -12 19 74 31 93 13 10 -10 18
-9 38 3 13 9 24 20 24 25 0 5 7 6 15 3 18 -7 20 7 3 25 -10 11 -10 12 -1 7 9
-5 11 -2 7 8 -3 9 -11 14 -17 13 -7 -1 -11 4 -10 11 2 6 0 12 -5 12 -4 0 -20
11 -35 24 -19 17 -24 26 -15 29 7 3 3 6 -9 6 -12 1 -25 6 -29 13 -5 7 -3 8 6
3 8 -5 11 -4 6 3 -4 6 -13 9 -21 5 -8 -3 -15 0 -15 6 0 6 -7 11 -15 11 -8 0
-15 5 -15 11 0 5 -4 7 -10 4 -5 -3 -10 -1 -10 5 0 6 -4 9 -10 5 -5 -3 -18 3
-30 15 -11 11 -20 16 -20 10 0 -5 -7 -7 -15 -4 -8 4 -12 11 -9 16 4 6 1 8 -7
6 -8 -3 -22 -1 -31 4 -13 6 -18 5 -18 -4 0 -9 -3 -9 -12 0 -17 17 -26 15 -34
-10z"/>
<path d="M2227 2630 c-13 -19 -17 -21 -17 -7 0 22 -9 22 -27 0 -9 -11 -12 -12
-7 -3 5 12 4 12 -6 3 -7 -6 -19 -9 -28 -6 -11 5 -13 2 -7 -6 6 -10 3 -11 -14
-2 -18 10 -20 9 -14 -6 3 -10 3 -15 -1 -11 -4 3 -22 0 -41 -7 -18 -8 -36 -11
-40 -7 -5 4 -5 1 -1 -5 4 -8 2 -13 -7 -13 -7 0 -23 -9 -34 -19 -12 -11 -23
-17 -26 -15 -3 3 -8 -4 -12 -15 -3 -12 -10 -19 -14 -17 -4 3 -15 -6 -25 -19
-10 -14 -22 -22 -27 -19 -5 3 -6 -3 -2 -12 4 -10 2 -15 -3 -11 -6 3 -18 -10
-29 -29 -10 -19 -22 -34 -27 -34 -4 0 -7 -6 -6 -12 2 -7 -2 -12 -9 -11 -7 2
-10 -6 -8 -17 2 -11 -1 -20 -6 -20 -6 0 -8 -4 -5 -9 7 -11 -16 -61 -29 -61 -5
0 -3 -5 5 -10 10 -6 11 -10 3 -10 -7 0 -13 -5 -13 -11 0 -5 6 -7 13 -4 6 4 4
0 -6 -8 -14 -11 -15 -16 -5 -20 10 -4 10 -6 1 -6 -7 -1 -13 -6 -13 -12 0 -5 5
-7 11 -3 8 4 8 1 1 -12 -5 -11 -8 -30 -7 -44 1 -14 -3 -31 -9 -39 -8 -11 -8
-13 0 -8 7 4 15 0 18 -9 3 -8 2 -12 -4 -9 -6 3 -10 1 -10 -4 0 -6 4 -11 10
-11 5 0 6 -7 3 -17 -4 -11 -3 -14 6 -9 14 9 11 -16 -4 -26 -6 -5 -5 -8 3 -8 6
0 12 -9 12 -21 0 -13 4 -18 12 -13 7 4 8 3 4 -5 -4 -6 0 -25 8 -42 9 -17 13
-35 11 -40 -3 -4 0 -11 6 -15 8 -5 9 -3 4 6 -5 9 -4 11 3 6 7 -4 12 -14 12
-22 0 -8 5 -14 11 -14 5 0 7 -4 4 -10 -3 -5 -1 -10 5 -10 7 0 9 -7 6 -16 -3
-9 -2 -12 5 -9 10 7 49 -30 49 -47 0 -4 5 -8 11 -8 7 0 20 -9 30 -21 9 -11 21
-20 26 -21 4 0 7 -4 6 -9 -2 -5 0 -8 5 -8 22 4 42 -2 37 -11 -3 -5 1 -10 9
-10 9 0 16 -4 16 -10 0 -5 3 -9 8 -8 16 3 81 -15 77 -22 -3 -4 2 -11 11 -14 8
-3 12 -2 9 4 -9 14 8 12 24 -2 11 -11 12 -10 6 1 -6 10 -4 12 6 5 18 -11 139
-13 161 -2 10 5 18 3 21 -5 4 -9 6 -9 6 0 1 7 8 10 16 7 8 -4 15 -2 15 3 0 5
8 10 18 11 31 3 47 7 60 15 6 5 12 5 12 0 0 -4 5 0 11 10 6 9 14 15 20 12 5
-4 9 -2 9 4 0 6 7 8 15 5 11 -5 13 -2 8 12 -4 12 -3 15 5 10 7 -4 12 -2 12 4
0 6 5 8 10 5 6 -3 13 1 16 10 4 9 13 14 20 11 7 -3 16 0 20 6 5 7 2 8 -7 4 -8
-4 -6 -1 4 7 9 8 17 20 17 26 0 7 5 9 10 6 6 -3 10 -1 10 5 0 7 16 28 35 47
20 20 34 43 33 52 -2 9 3 15 10 13 8 -1 11 2 8 7 -4 5 -1 13 5 16 5 4 8 14 5
22 -3 8 -1 11 4 8 6 -3 10 2 10 12 0 11 6 25 13 32 10 11 9 12 -2 6 -10 -6
-12 -4 -5 6 13 21 15 37 15 124 -1 103 -2 118 -13 131 -4 6 -6 19 -2 28 3 9 2
16 -4 16 -6 0 -8 9 -5 20 3 11 1 20 -5 20 -14 0 -35 57 -26 72 5 9 2 8 -11 -2
-10 -8 -16 -10 -12 -3 5 7 0 16 -11 22 -15 8 -24 6 -41 -10 -11 -11 -21 -17
-21 -14 0 3 -6 0 -13 -7 -10 -9 -11 -15 -3 -24 6 -7 13 -11 16 -9 3 2 6 -8 6
-21 1 -15 -2 -21 -10 -17 -7 4 -6 1 2 -9 10 -12 10 -17 -1 -27 -8 -6 -17 -8
-20 -4 -4 3 -7 1 -7 -6 0 -8 -6 -11 -16 -7 -15 6 -15 4 -3 -10 13 -16 12 -16
-7 -6 -12 6 -25 8 -29 4 -5 -4 -5 -2 -2 4 4 7 -2 14 -14 17 -15 4 -20 11 -15
23 6 15 5 15 -19 0 -23 -15 -24 -15 -18 1 4 12 0 11 -11 -5 -10 -12 -22 -20
-27 -17 -5 4 -9 -1 -9 -9 0 -9 -4 -17 -10 -17 -5 -1 -16 -2 -22 -3 -7 -1 -12
-7 -11 -13 1 -6 -11 -14 -27 -18 -17 -4 -30 -10 -30 -14 0 -7 -43 -31 -55 -31
-2 0 -2 12 1 26 3 14 6 46 7 70 1 24 5 44 8 44 4 0 6 16 5 35 -1 24 -7 37 -18
41 -10 3 -18 10 -18 15 0 5 -7 9 -16 9 -10 0 -14 6 -10 15 3 10 -1 15 -12 16
-11 0 -12 2 -4 6 10 4 10 8 0 21 -11 13 -11 14 1 7 11 -6 13 -4 8 10 -4 9 -2
25 5 33 11 13 11 14 -1 7 -10 -6 -12 -4 -7 4 5 7 14 10 22 7 8 -3 11 0 8 8 -5
12 10 23 34 26 4 1 15 9 25 18 17 15 17 15 11 -4 -4 -10 -3 -15 1 -11 12 10
15 88 4 81 -5 -3 -9 0 -9 7 0 8 -4 9 -13 0 -10 -8 -17 -7 -25 1 -9 9 -18 9
-36 0 -21 -9 -25 -8 -28 6 -3 14 -6 13 -21 -8z m-167 -262 c0 -5 3 -7 8 -7 19
3 25 -2 12 -11 -13 -8 -13 -10 1 -10 12 0 16 -8 14 -31 -3 -29 -32 -62 -47
-53 -5 3 -8 0 -8 -7 0 -8 -5 -7 -17 2 -15 12 -16 12 -8 -1 5 -9 0 -8 -13 4
-12 11 -22 15 -23 10 0 -5 -6 7 -13 26 -8 24 -9 40 -2 52 6 9 12 15 14 13 3
-2 10 2 18 9 14 14 64 17 64 4z m221 -298 c0 10 2 11 6 3 2 -7 11 -13 18 -13
16 0 38 -34 28 -44 -3 -3 -1 -6 5 -6 6 0 9 -7 6 -15 -4 -8 -10 -12 -15 -9 -5
3 -9 2 -8 -3 4 -21 -2 -33 -16 -33 -8 0 -15 -4 -15 -8 0 -5 -13 -7 -30 -4 -16
2 -27 8 -24 13 3 5 -3 9 -12 9 -10 0 -14 3 -11 7 4 3 2 12 -4 20 -9 10 -8 13
1 13 8 0 10 3 7 7 -4 3 -1 13 6 21 9 13 9 14 0 8 -20 -11 -15 -1 9 20 14 13
19 14 14 4 -4 -9 -2 -8 6 2 9 13 14 14 20 5 6 -9 8 -8 9 3z m-271 -22 c0 -4 7
-8 16 -8 8 0 12 -4 9 -10 -3 -5 0 -10 9 -10 9 0 13 -8 11 -25 -1 -14 2 -28 8
-32 6 -4 7 -1 2 7 -5 8 -4 11 2 7 12 -8 5 -57 -9 -57 -5 0 -8 -6 -5 -12 5 -18
-47 -48 -83 -48 -45 0 -77 20 -97 59 -19 40 -18 58 4 83 8 9 12 21 9 26 -4 6
3 8 16 4 13 -3 19 -1 15 6 -4 5 -1 12 5 15 22 7 88 4 88 -5z m571 -39 c7 -12
9 -12 9 1 0 11 4 9 12 -5 6 -11 15 -23 20 -26 8 -5 13 -50 10 -96 -2 -17 -6
-21 -19 -16 -11 4 -14 3 -9 -5 4 -7 2 -12 -4 -12 -6 0 -8 -6 -4 -12 4 -7 4
-10 0 -6 -5 4 -18 3 -31 -2 -15 -6 -27 -4 -35 3 -10 9 -11 9 -6 0 3 -6 2 -14
-4 -18 -9 -5 -14 7 -11 27 0 4 -6 5 -14 2 -8 -3 -22 1 -30 10 -9 9 -13 16 -9
16 4 0 -1 7 -12 16 -10 8 -12 12 -4 8 12 -5 13 -4 3 6 -9 9 -9 19 -2 33 8 14
8 18 0 13 -6 -4 -11 -2 -11 3 0 6 5 11 12 11 6 0 9 3 5 6 -3 3 6 17 20 30 29
27 37 30 28 12 -3 -7 0 -6 6 3 14 19 67 18 80 -2z m-250 -217 c8 3 20 -2 28
-9 16 -16 26 -77 11 -68 -5 3 -7 -1 -4 -9 4 -11 -3 -17 -23 -23 -15 -4 -34 -6
-42 -4 -7 1 -10 -2 -6 -9 5 -7 0 -7 -13 1 -12 7 -19 16 -16 20 2 4 0 9 -6 11
-5 1 -12 18 -14 36 -3 25 0 32 10 28 8 -3 11 0 7 10 -5 12 7 19 30 15 4 0 7 5
7 12 0 9 3 8 9 -2 5 -7 15 -11 22 -9z"/>
<path d="M1663 2165 c0 -8 4 -12 9 -9 5 3 6 10 3 15 -9 13 -12 11 -12 -6z"/>
<path d="M2759 1713 c-13 -16 -12 -17 4 -4 16 13 21 21 13 21 -2 0 -10 -8 -17
-17z"/>
</g>
</svg>
